<mxfile host="app.diagrams.net" modified="2024-04-23T02:00:56.322Z" agent="Mozilla/5.0 (Windows NT 10.0; Win64; x64) AppleWebKit/537.36 (KHTML, like Gecko) Chrome/123.0.0.0 Safari/537.36" version="24.0.6" etag="sJ2kz3L6om-lJGlGvy2P" type="github">
  <diagram name="第 1 页" id="LSbt0MMV21LiR3zkPvIJ">
    <mxGraphModel>
      <root>
        <mxCell id="0" />
        <mxCell id="1" parent="0" />
      </root>
    </mxGraphModel>
  </diagram>
</mxfile>
